<?xml version="1.0" encoding="utf-8"?>
<!-- Uploaded to: SVG Repo, www.svgrepo.com, Generator: SVG Repo Mixer Tools -->
<svg width="800px" height="800px" viewBox="-1 0 20 20" xmlns="http://www.w3.org/2000/svg">
  <g id="copy-5" transform="translate(-3 -2)">
    <path id="secondary" fill="#2ca9bc" d="M14,5V3H5A1,1,0,0,0,4,4V16a1,1,0,0,0,1,1H15a1,1,0,0,0,1-1V5Z"/>
    <path id="primary" d="M16,7h3a1,1,0,0,1,1,1V20a1,1,0,0,1-1,1H9a1,1,0,0,1-1-1V17" fill="none" stroke="#000000" stroke-linecap="round" stroke-linejoin="round" stroke-width="2"/>
    <path id="primary-2" data-name="primary" d="M14,3H5A1,1,0,0,0,4,4V16a1,1,0,0,0,1,1H15a1,1,0,0,0,1-1V5Zm0,0V5h2Z" fill="none" stroke="#000000" stroke-linecap="round" stroke-linejoin="round" stroke-width="2"/>
  </g>
</svg>